
<svg xmlns="http://www.w3.org/2000/svg" width="202.5" height="157.5" viewBox="35.3 50.4 202.5 157.5"><defs><radialGradient id="b" cx="0" cy="0" r="1" gradientTransform="matrix(24.023 0 0 43.002 84.7 159.4)" gradientUnits="userSpaceOnUse"><stop stop-color="#8A76E8"/><stop offset="1" stop-color="#271A38"/></radialGradient><radialGradient id="d" cx="0" cy="0" r="1" gradientTransform="translate(59.3 97.5) scale(4.774)" gradientUnits="userSpaceOnUse"><stop stop-color="#271A38"/><stop offset=".9" stop-color="#AD6247"/></radialGradient><radialGradient id="e" cx="0" cy="0" r="1" gradientTransform="translate(61.6 77.2) scale(8.387)" gradientUnits="userSpaceOnUse"><stop stop-color="#8A76E8"/><stop offset="1" stop-color="#271A38"/></radialGradient><radialGradient id="f" cx="0" cy="0" r="1" gradientTransform="matrix(3.55 0 0 3.55 121.8 84)" gradientUnits="userSpaceOnUse"><stop stop-color="#FF7B6D"/><stop offset="1" stop-color="#EDB3B2"/></radialGradient><radialGradient id="g" cx="0" cy="0" r="1" gradientTransform="translate(207.4 64.7) scale(5.646)" gradientUnits="userSpaceOnUse"><stop stop-color="#AD6247"/><stop offset="1" stop-color="#CC8269"/></radialGradient><radialGradient id="i" cx="0" cy="0" r="1" gradientTransform="translate(176.9 87) scale(5.431)" gradientUnits="userSpaceOnUse"><stop stop-color="#AD6247"/><stop offset="1" stop-color="#CC8269"/></radialGradient><radialGradient id="k" cx="0" cy="0" r="1" gradientTransform="matrix(4.051 0 0 6.644 191 136.8)" gradientUnits="userSpaceOnUse"><stop stop-color="#FF7B6D"/><stop offset="1" stop-color="#EDB3B2"/></radialGradient><radialGradient id="l" cx="0" cy="0" r="1" gradientTransform="translate(209 156) scale(10.38)" gradientUnits="userSpaceOnUse"><stop stop-color="#D4145A"/><stop offset="1" stop-color="#FF7B6D"/></radialGradient><radialGradient id="m" cx="0" cy="0" r="1" gradientTransform="translate(226.1 159.6) scale(10.622)" gradientUnits="userSpaceOnUse"><stop stop-color="#D4145A"/><stop offset="1" stop-color="#FF7B6D"/></radialGradient><radialGradient id="n" cx="0" cy="0" r="1" gradientTransform="translate(217.3 139) scale(3.492)" gradientUnits="userSpaceOnUse"><stop stop-color="#FF7B6D"/><stop offset="1" stop-color="#EDB3B2"/></radialGradient><linearGradient id="j" x1="78.7" x2="205.4" y1="114.5" y2="187.4" gradientUnits="userSpaceOnUse"><stop offset=".5" stop-color="#fff"/><stop offset="1" stop-color="#ECE9FB"/></linearGradient></defs><mask id="a" width="280" height="281" x="0" y="0" maskUnits="userSpaceOnUse" style="mask-type:alpha"><path fill="#D9D9D9" d="M139.8 280.2a139.8 139.8 0 1 0 0-279.7 139.8 139.8 0 0 0 0 279.7Z"/></mask><g mask="url(#a)"><path fill="#AD6247" d="m48 181.1-4 5.3 3.4 8.5 1.6-.8v-5.4c0-.6 3.2-3.6 3.2-3.6l-4.2-4Z"/><path fill="#8A76E8" d="M45.4 184.6 43 187a1.1 1.1 0 0 0-.2 1.2l5 9.9c.7 1.2 2.3 1.3 2.2-1-.2-2.2-1-5.3-1-5.3s-.4 1.2-1.5-.2a4.6 4.6 0 0 1-1.3-3.7c0-1.7-.8-3.3-.8-3.3Z"/><path fill="#271A38" d="M68.6 124.8s5.2 23.7 6 28c.8 4.1 1.2 7.1-1.8 10.9l-20.5 25-4.7-7.1 16.6-22-4.2-35.8 8.6 1Z"/><path fill="#AD6247" d="M61.4 188c1.5 12 2 12.2 1.3 9.6 0 .3 4.2 2.2 4.2 2.2l-.6-11-4.9-.8Z"/><path fill="#8A76E8" d="M62.3 194.8c-1 3.4-2 5.8 2.7 5 1.9-.2 5.6.2 1.6-5.6-.2 1 .3 2.6-2 2.8-2.3.3-2.3-2.2-2.3-2.2Z"/><path fill="#AD6247" d="M71.4 104.4a2.6 2.6 0 0 0-4.5 2.5l10.8 18.8a2.6 2.6 0 1 0 4.5-2.6l-10.8-18.7Z"/><path fill="url(#b)" d="M66.4 132.3 68 189l-8.1.6s-8-50-8.6-54.9c-.6-4.9 0-10.1 7.1-10.8 7.8-.9 8 8.4 8 8.4Z"/><path fill="#FF7B6D" d="M70.4 116.7c1.3-10.4-1-13.6-1-13.6H52s-1.6.3-1.3 5.1c.3 3.7 1.2 11.8 1.8 16-.2.7-1 4-1 4.9-.3 4.4 5.4 8 16.3 7.4 5.2-.4 6.8-5 6.8-10.8 0-3.4-1.6-6.7-4-9Z"/><mask id="c" width="25" height="34" x="50" y="103" maskUnits="userSpaceOnUse" style="mask-type:alpha"><path fill="#FF7B6D" d="M70.4 116.7c1.3-10.4-1-13.6-1-13.6H52s-1.6.3-1.3 5.1c.3 3.7 1.2 11.8 1.8 16-.2.7-1 4-1 4.9-.3 4.4 5.4 8 16.3 7.4 5.2-.4 6.8-5 6.8-10.8 0-3.4-1.6-6.7-4-9Z"/></mask><g fill="#F2E93F" mask="url(#c)"><path d="m57.6 131-.3.3-.5.6c-.3.2-1.4.6-2.4.4l-.7-.3-.6.4a4 4 0 0 1-3 .3l-.7-.4-.3-.2-.2.5c-.2.4-.7.6-1.6.7-.8 0-1.5 0-2-.2l-.4-.3-.4.2-.4.6c-.2.3-.6.6-1.5.7-.8.1-1.3 0-1.7-.3-.4-.3-1.2-1.1-1.2-1.8v-.5l.3-.3h1c.3.1.4.3.3.4-.7.7-.4 1.2.2 1.7l.4.4a1 1 0 0 0 1 0l.4-.4a2.4 2.4 0 0 0 1-1.7l.1-1-.7-.1c-.2 0-.3-.3-.1-.4l1.2.3h.7l.8.1c.5 0 .4.3-.1.5l-.8.2v.2l.4 1c0 .2.4.3.9.4a1.2 1.2 0 0 0 1.3-.7l.4-1.6v-.4l.4-.2h.4a.3.3 0 0 1 .1.4c0 .5.3.9.5 1.3.3.3.6.5 1 .6h.6c.6.1 1.3-.1 1.4-.4l.2-1v-1c0-.4.1-.2.3-.2h.5l.2.7-.1.4c0 .5.3.8 1 1.1h.3c.3.2.6.1.8 0l.4-.4c.4-.4.6-1 .6-1.5 0-.2-.1-.2 0-.4l.2-.1h.5a.4.4 0 0 1 0 .3c.1.6.6 1 1.2 1.4.4.3.9.4 1.4.4.7.1 1.3 0 1.6-.4v-.3c.3-.7.5-1.4.5-2v-.3l.5-.1.2.2v.6c0 .6.5 1 1.6 1.3l.9.1c.6 0 1.3-.2 1.6-.5l.2-.4.1-1.4a.3.3 0 0 1 .2-.3c.1 0 .2-.1.4 0a.3.3 0 0 1 .2 0v.4c.2.7.7 1.2 1.6 1.7l.3.1h.7l1.1-.7c.5-.7.9-1.3.7-2v-.1c0-.1 0-.2.3-.3a.8.8 0 0 1 .6.1v.3a1.3 1.3 0 0 0 .3 1.2c.3.4.6.7 1 .9a1.6 1.6 0 0 0 1.4 0l.6-.6c.3-.4.4-1 .5-1.6v-.5l.2-.1h.4a.3.3 0 0 1 .1.2v1c0 .2 1 .9 2 1 .5 0 .8-.1 1-.3l.4-1 .6-1.4v-.2c.2-.1.3-.2.8-.2v.4c-.1.6.1 1.2.7 1.7l.5.3c.4.1.9 0 1.3-.1l.2-.1c.6-.4 1-1 1.5-1.5a.7.7 0 0 0 0-.8l-.1-.3.1-.1h.4l.2.1a6 6 0 0 0 .8 1.4c.3.3.8.4 1.5.3l.7-.1a.5.5 0 0 0 .3-.5l.5-1.5c.2-.6 0-.2.4-.3.3 0 .5 0 .4.2-.1.6.3 1.1.8 1.6l.3.1c.4.2.9.2 1.3 0l.6-.4c.8-.6 1-1.2.6-1.8l-.1-.3a.3.3 0 0 1 .1-.2l.3-.1a.4.4 0 0 1 .4 0v.2l.3.7c.1.4.4.6.7.8.3.2.5.2 1 0 .5 0 .9-.2.9-.5v-1.8a.2.2 0 0 1 .1-.1l.3-.1h.3l.2.6v.9l.1.4c0 .2.5.2 1 0l.6-.3c.3-.4.4-.7.3-1l-.3-.7s-.2-.1-.1-.2l.2-.1c.1-.1.3-.1.4 0l.2.1.4 1c0 .4-.2.7-.5 1-.4.3-1 .7-2 .7a3 3 0 0 0-1.3.3l-.4.2c-.6.2-1.2.2-1.8 0l-.6-.3-.3.3a3 3 0 0 1-.4.5c-.4.4-1 .6-2 .7-.8 0-1.2-.1-1.5-.4l-.3-.4-.3.2-.1.2c-.1.3-.2.5-.9.6a3 3 0 0 1-2.1 0l-.6-.2-.5-.3-.4.4-.8.7-.5.4a2.8 2.8 0 0 1-2.4.1c-.3 0-.6-.3-.8-.5l-.4-.4-.2.6a4 4 0 0 1-.4.6c-.3.3-.8.5-1.4.4h-1l-.6-.1c-.6-.1-.8-.1-1.2.2l-.5.3c-.9.5-2 .6-2.7.2l-.8-.6-.3-.3-.4.4c-.3.4-.6.7-1 .9l-.7.3c-.4.2-1 .2-1.4 0a5.2 5.2 0 0 1-1.4-.8c-.3 0-.2.2-.2.2l-.2.2c-.3.6-2.4 1.1-3.5.8l-.8-.3-.7-.2v.2l-.2.3c-.5.8-2.4 1.3-3.8.8-.3 0-.5-.2-.8-.4l-.5-.4Zm-12.4 5.7c1-.4 1.3-.9 1.3-1.3l.1-1.1a.3.3 0 0 1 .4-.3c.3 0 .3.1.4.2l.3.9a1.3 1.3 0 0 0 .6.8l.8.5a1.7 1.7 0 0 0 1.3.1c.6-.1 1-.4 1-.6l.2-1 .2-.8v-.1l.4-.2.4.1.1.2.5 1c.3.5.7.8 1.6 1l.3-.2c.7-.7 1.1-1.4 1-2.1v-.1a.6.6 0 0 1 .5-.2l.6.3v.2c-.1.5.4 1 1.1 1.3l1 .3a.9.9 0 0 0 .6-.2l.4-.5.2-.8c0-.2 0-.3.2-.5 0-.2.1-.2.3-.2l.4.1v.3c.2.6.9 1.2 1.7 1.7l.4.1a1.6 1.6 0 0 0 1.5-.5c.3-.3.5-.8.5-1.2v-.5h.2l.1-.1a.4.4 0 0 1 .4 0l.1.3v.8c0 .4.4.7 1 1 .4.3 2.4.1 2.7-.3l.2-.3.6-1.7a.1.1 0 0 1 0-.1l.3-.1h.4a.2.2 0 0 1 .1.2c0 .7.8 1.2 1.4 1.7.7.5.7.3 1.3.3.6 0 1.1-.3 1.2-.6v-.3c0-.6.2-1.1.3-1.7l.1-.2h.5l.1.2a4 4 0 0 1 0 1.7c-.1.1-.1.3 0 .4 0 .3.7.5 1.3.3.3 0 .5-.2.8-.4l.6-.8.5-1.5v-.2h.6v.2l.3.9c.1.4.6.8 1.3 1 .3.2.7.3 1 .2a.7.7 0 0 0 .7-.4l.5-1.4v-.3l.4-.2c.3 0 .6 0 .6.2v.7l1 1.1c.4.3 1.2.3 1.7 0a1 1 0 0 0 .5-.7l.1-1.2v-.4h.7l.1.3c0 .3.2.7.7 1l1 .6a1.4 1.4 0 0 0 1.2 0c.3-.2.5-.3.6-.6l.3-1v-.4l.3-.2.4.1.2.3v.7a1 1 0 0 0 .4.8.8.8 0 0 0 .7 0c.6-.2 1-.4 1.2-.8.2-.3.3-.7.2-1v-.5l.5-.1.4.1v.7l-.2.6c0 .3.2.6.6.9l.6.2h1.1a2 2 0 0 0 1-.5 1.1 1.1 0 0 0 .4-1v-1c-.1-.2 0-.3 0-.4h.6a.4.4 0 0 1 .2.3v1.4l.2.4c0 .1.3.2.7.2a1 1 0 0 0 .8-.3 2 2 0 0 0 .6-1.4v-.8c.5-.2.8-.1.8.1a3 3 0 0 1-.6 2l-.5.5c-.4.2-.9.3-1.5.2l-1-.1-.6.4c-.9.5-2.5.5-3.3 0l-.6-.4-.6.3-.6.3c-.7.3-1.3.3-1.8 0l-.3-.2-.4.2a1 1 0 0 1-.7.3 2 2 0 0 1-1.3.1 8 8 0 0 1-1-.4l-.7-.4a.5.5 0 0 0-.3.5c-.2.4-.8.7-1.6.8-.5.2-1 .1-1.5 0l-.7-.6a5 5 0 0 1-.5-.5l-.2.3.1.3c0 .1-.6.7-1.4.7-.7 0-1.4 0-2-.4l-1-.6c-.2 0-.2.1-.3.2l-.4.5c-.3.3-.7.6-1.1.7a3 3 0 0 1-2 .1l-.6-.1-.9.2c-1 .2-1.6.2-2.2-.2l-.8-.6-.4-.3c-.3.3-.7.6-.6.9.2.3-.1.3-.4.4l-1.5.4c-.6.2-1.3.1-2 0l-.6-.5-.5-.3-.3.3c-.6.6-2.3.8-3.1.3l-.8-.7-.5-.3c-.2 0-.2.1-.2.2l.1.2c.2.3 0 .5-.5.7-.5.1-1 .2-1.6 0a3 3 0 0 1-1.6-.5l-.6-.3c-.3.1-.3.3-.4.5l-.6.7-.3.2c-.4.1-.8.2-1.1 0a3 3 0 0 1-1.3-.6l-.6-.4c-.2 0-.1.2-.1.2v.3c-.3.5-1 .9-2.3 1-.5 0-1 0-1.6-.3l-.5-.3-.5-.3-.4.4c-.3.3-.9.5-1.6.6-.6.1-1.2 0-1.7-.1l-.2-.1c-1-.7-1.7-1.4-1.5-2.3h1.1a1.2 1.2 0 0 1 .5 1.1.4.4 0 0 0 0 .5h.1c.5.4 1 .5 1.5.6Zm9.2-13.9-.3.6c-.3.4-.7.7-1.1.9-.7.3-1.4.4-2.2.3l-.6-.3-.3.4-.2.3c-.5.8-1.8 1.3-3 1.2h-.4l-.4.4a2 2 0 0 1-1.8.6l-1.7-.3-.7-.2-.2.4-.2.8c-.3.3-.8.6-1.6.7l-1-.1c-1-.3-1.5-.8-1.4-1.5 0-.2 0-.3.2-.5h.5v.2c-.1.6.5.9 1 1.3.5.3.5.1 1 .1a1 1 0 0 0 .7-.3l.1-.4a4 4 0 0 0 0-1.7v-.4h.4l.4.5c.3.3.7.5 1.4.7l1.4.3c.5 0 .9-.1 1-.5.2-.3.4-.8.2-1.3l-.2-.6v-.2l.4-.1.2.2.6 1c0 .2.2.3.3.4h1.2c.4 0 .7-.3 1-.7.3-.5.4-1 .2-1.5 0-.1 0-.2-.2-.3l.1-.3h.5a.5.5 0 0 1 .4.4 1.5 1.5 0 0 0 1 .8h.5a2.3 2.3 0 0 0 1.7-.6 1.2 1.2 0 0 0 .4-1 7 7 0 0 0-.2-.7v-.3s0-.2.2-.2h.4a.1.1 0 0 1 .1.2c.1.4.6.7 1.1 1 .5.3 1 .2 1.8.1a1.4 1.4 0 0 0 1-.5l.3-.5a2.5 2.5 0 0 0 0-1.5v-.1l.3-.2h.3l.1.2c.1.3.3.7.6.9.3.2.7.3 1 .3a3.3 3.3 0 0 0 2.5-.8c.4-.5.6-.9.5-1.2l-.2-.7.2-.3a.5.5 0 0 1 .5 0v.1c.1.4.6.7.9 1 .3.2.7.2 1.3.2.7 0 1.7-.4 1.9-.8.1-.5.3-1-.1-1.4-.4-.4 0-.3 0-.5s0-.2.3-.2h.3l.5.8.7.4h.4c.4.1.8 0 1.2-.2.3-.2.6-.6.8-1a1.1 1.1 0 0 0 0-1l-.1-.3.2-.2h.3l.2.2.5.8c.1.2 1.6.5 3 0l.6-.3.3-1.2.1-1 .3-.2h.2l.3.5a2 2 0 0 0 1.8 1.1c.5 0 1 0 1.4-.4.8-.6 1.4-1.2 1.3-1.8v-.6c0-.1 0-.2.3-.3a.3.3 0 0 1 .4 0v.2c.1.5.6.8 1 1.2l.3.2c.4.2 1.6-.1 2.1-.5.2-.1.3-.3.3-.4a1.4 1.4 0 0 0 0-1.3.9.9 0 0 1 0-.8s0-.2.2-.2h.3l.1.4.5 1c.2.3.7.4 1.3.5.5 0 1 0 1.5-.3.8-.4 1.2-.9 1-1.3 0-.4-.2-.7-.4-1v-.5l.3-.2h.3a1 1 0 0 1 .5.7l.3.8c.3.3.8.4 1.6.4.7-.5 1-1 1.2-1.4 0-.4-.2-1-.9-1.4l-1.5-.3h-.8l.5-.3a4 4 0 0 1 1.4-.2c.4 0 .8 0 1.2-.2h.1c.4.6.6 1.2.8 1.8 0 .6-.4 1.2-1.3 2a2 2 0 0 1-1.5.4h-1l-.6.3-1 .6a3 3 0 0 1-2 .5l-1.2-.2-.4.5c-.4.4-.9.6-1.4.7l-.6.2c-.7.2-1.3.2-1.7 0l-.4-.4-.3.1a12.6 12.6 0 0 1-2.6 1.8l-1 .1-1-.2-.6-.3-.1.3-.1.3c-.2.5-.7.9-1.8 1.1-.7.2-1.5.2-2.2.2h-.8l-.4.3-.5.5c-.6.5-1.5.8-2.3.7h-.6c-.3 0-.2.2-.3.3 0 .2-1 1-2 1.2-.6.2-1.2.2-1.8.1l-.8-.2-.3.3-.7.6c-1 1-2 1.2-3.3 1l-.6-.1h-.3a.5.5 0 0 0-.3.4c0 .6-1 1-2 1.1-1.1.2-1.6.2-2-.1l-.5-.1Z"/><path d="m54.4 124.6.1.3v1c0 .4.2.8.7 1 .5.4 1.5.2 2-.2h.1c.5-.7 1.2-1.4.9-2v-.1s0-.2.2-.3c.2 0 .4 0 .4.2l.1.2.2.7c0 .2.2.3.4.5.6.4 1.6.3 2.6-.2 1-.6 1.7-1.3 1.5-2l.2-.4a.5.5 0 0 1 .4-.2l.3.1.1.4c.1.4.6.7 1 1l.6.1c.8 0 2.2-.4 2.2-1v-1.4c-.3-.4 0-.2.4-.3a1 1 0 0 1 .3.9c0 .3 0 .5.2.8.3.3.7.4 1.7.3h.5c.6-.1 1-.3 1.1-.6.5-.4.7-.9.9-1.5l.2-1.1c.1-.4 0-.1.1-.1l.4-.2h.2a.3.3 0 0 1 0 .3v.5c0 .6.5 1 1.3 1.3a2.8 2.8 0 0 0 2.6-.5.8.8 0 0 0 .3-.6l-.1-1.3v-.5a.5.5 0 0 1 .5-.4c.3 0 .3.2.3.3a1.5 1.5 0 0 0 .2 1.1l.9 1c.4.3 1.4.4 2.4.1 1-.2 1-.3 1.1-.7.2-.5.3-1.1.1-1.7l-.1-.4.1-.1a.5.5 0 0 1 .5-.1l.2.2c.3.4.2.8.2 1.2l.2.7.3.3c.4.3 1.4.2 2-.2.5-.3.4-.3.4-.5v-2l.3-.2.4.2a.7.7 0 0 1 .2.6 1.3 1.3 0 0 0 .5 1.2l.4.2a1.4 1.4 0 0 0 1.2-.1c1.1-.6 1.7-1.2 1.7-1.8l-.1-.4c-.2-.3 0-.7.2-1.1.2-.4.4 0 .4 0l.2.3c0 .5.2 1 .3 1.3a1.7 1.7 0 0 0 1 1c.4.2.7.2 1.3 0a2 2 0 0 0 1.2-1c.2-.3 0-1-.4-1.5s-.1-.6.1-1h.5l.1.3.4 1.3c.1.5.6.8 1.3 1l.4.2c.3 0 .7 0 .7-.2l.4-1.3a.7.7 0 0 0-.4-.8.5.5 0 0 1-.3-.6l.3-.2a.8.8 0 0 1 .7 0l.4 1.6a1.4 1.4 0 0 1-.3 1.2c-.5.6-1.3.8-2.4.5l-.7-.3-.8.6a4 4 0 0 1-1.5.6c-.9.2-1.5.1-1.9-.2l-.4-.5a.5.5 0 0 0-.5.2 8 8 0 0 1-1.5 1 2 2 0 0 1-1.6.3c-1-.1-1-.1-1.8.3l-.3.2c-.8.4-1.7.5-2.5.2h-.5l-.7.3c-.8.3-1.7.5-2.5.5-.7 0-1.2-.2-1.5-.4l-.4-.4-.5.5c-.3.3-.7.6-1.2.7a4 4 0 0 1-3.5-.4l-.3.3-.5.6c-.6.8-2.6 1.3-3.8 1h-.7l-.8.2-1.2.4c-.6.2-1.2.2-1.7 0l-.6-.4-.2-.2-.3.3a7 7 0 0 1-1.7 1.3c-.4.2-.7.4-1.1.4-.9.2-1.6.2-2.1 0l-.6-.4-.3.3-.5.5a2 2 0 0 1-.8.5c-1.1.3-1.5.3-2.2 0l-.5-.1-.8.4c-.6.3-1.3.4-2 .2l-1-.2-.4.3a4.1 4.1 0 0 1-1.8 1l-.7-.2-.7-.3h-.1c-.4.7-1.5 1-2.8 1.3-1.2.3-1.7 0-1.7-.4v-2a.2.2 0 0 1 0-.2l.4-.1h.2v.4l.1 1.3c0 .5.2.4.4.6.3 0 .6.1.8 0 1-.1 1.7-.4 2-1l.1-.7v-1.1l.4-.1h.2l.2.3-.1.6c0 .4.4.7 1 1a1 1 0 0 0 1-.1c.8-.5 1-1 .8-1.4l-.3-.6c0-.1 0-.3.2-.4l.2-.1h.3l.2.7c.1.5.6.8 1.4 1.1a1.2 1.2 0 0 0 1 0c.5-.2.8-.5.9-.7l.1-.9.1-1 .5-.2Zm-.7-12.9-.3.2-.5.7c-.6.5-1.3.7-2.3.5l-.8-.2-.5.4a3.8 3.8 0 0 1-3.7.2l-.4-.2c0 .2 0 .3-.2.5-.1.4-.6.7-1.4.8-.6.2-1.3.1-2 0l-.5-.3-.4.2-.3.6c-.2.4-.6.7-1.4.9-.8.1-1.4 0-1.7-.2-.4-.3-1.3-1.1-1.4-1.8v-.5l.2-.3h1c.3 0 .5.2.3.3-.6.8-.2 1.2.4 1.7l.5.4a1 1 0 0 0 1-.2l.3-.3a2.4 2.4 0 0 0 .8-1.8v-1a3.4 3.4 0 0 1-.8 0 .2.2 0 0 1 0-.4c.4 0 .8 0 1.2.2h1.5c.6 0 .5.3 0 .5l-.8.2v.3l.4.8c.2.3.5.4 1 .4a1.2 1.2 0 0 0 1-.3l.3-.5.2-1.5v-.5l.4-.2h.4l.1.2v.2c0 .4.3.8.7 1.2.2.3.6.5 1 .6h.6c.6 0 1.2-.3 1.3-.6.1-.3.2-.6.1-1v-1.1c0-.4 0-.2.2-.2h.5l.1.1.2.5v.5c0 .2.4.8 1 1l.3.1c.3 0 .6 0 .8-.2a2.5 2.5 0 0 0 .7-1.1v-1.2l.3-.2h.5l.1.3c.1.6.6 1 1.2 1.4l1.5.3c.7 0 1.3-.2 1.5-.6v-.2c.2-.7.4-1.4.3-2.1a.4.4 0 0 1 .5-.4l.2.2.1.6c0 .6.6 1 1.7 1.2h.8c.8 0 1.4-.3 1.6-.6l.2-.4v-1.4l.1-.3.4-.2.3.1v.4c.2.7.8 1.2 1.7 1.6l.3.1h.8l1-.8c.4-.7.7-1.4.5-2v-.2s0-.2.2-.2h.7a.3.3 0 0 1 0 .3 1.4 1.4 0 0 0 .4 1.2l1.1.8a1.7 1.7 0 0 0 1.4-.2c.2 0 .4-.3.5-.5.3-.5.4-1 .3-1.6v-.5c0-.2.1-.2.2-.2h.4l.1.3c0 .2 0 .5.2.8 0 .3 1 1 2 .9.5 0 .8-.1 1-.3l.3-1 .5-1.4a.2.2 0 0 1 0-.2c0-.2.2-.2.8-.3v.4c-.1.6.2 1.2.8 1.7l.5.2c.4 0 1 0 1.3-.2l.2-.1c.5-.4 1-1 1.4-1.6a.7.7 0 0 0-.1-.8l-.2-.3h.2l.3-.1h.1l.1.1.4.6.6.7c.3.3.8.3 1.5.2l.7-.1a.6.6 0 0 0 .3-.5l.3-1.6c0-.1 0-.2.4-.3.3 0 .5 0 .4.2 0 .6.4 1 1 1.5l.2.1c.5.2 1 .1 1.4 0l.6-.5c.6-.6.7-1.2.4-1.8a2 2 0 0 1-.2-.4.3.3 0 0 1 .1-.2l.4-.1h.3l.1.2.3.7c.1.3.4.6.7.8h1c.6-.2 1-.4 1-.7l-.1-1-.1-.7v-.2l.4-.1h.3l.2.6v.8l.2.4c0 .2.5.2 1 0l.6-.3c.3-.4.3-.8.2-1a4 4 0 0 0-.4-.7l-.2-.2.3-.2h.4l.2.1.4 1a1 1 0 0 1-.3 1c-.4.5-1 .7-1.9.8-.5 0-1 .1-1.3.4a2 2 0 0 1-.5.2c-.5.2-1.1.3-1.7.1l-.6-.2-.3.4-.4.5c-.3.4-1 .6-1.8.7-.9.2-1.3 0-1.6-.2l-.4-.4-.2.2-.1.2c-.1.3-.2.6-.9.7-.6.3-1.4.3-2 .2l-.7-.2a3 3 0 0 1-.5-.3l-.4.4a8 8 0 0 1-.7.7l-.5.5a2.7 2.7 0 0 1-2.3.3c-.3 0-.6-.3-.9-.5l-.4-.4-.2.6c0 .3-.2.5-.3.7a2 2 0 0 1-1.4.5h-1.6a1.4 1.4 0 0 0-1.1.2l-.6.4c-.8.5-1.8.7-2.6.4l-.9-.6-.3-.3-.3.5a3 3 0 0 1-1 1l-.6.3c-.4.2-1 .2-1.4.1-.3 0-.6-.2-.8-.3l-.7-.4c-.2 0-.2.1-.2.2l-.1.2c-.3.6-2.3 1.2-3.5 1l-.8-.2-.7-.2v.2l-.2.3c-.4.9-2.3 1.4-3.7 1.1-.3 0-.6-.2-.8-.4l-.5-.3Zm-13.9 8.8c.9-.5 1-1 1-1.5v-1a.3.3 0 0 1 .3-.4c.3 0 .4 0 .4.2l.5.7a1.3 1.3 0 0 0 .7.8l1 .4a1.7 1.7 0 0 0 1.3-.1c.5-.3.8-.5.8-.8V117a.1.1 0 0 1 .1-.1c0-.1.1-.2.3-.2h.4l.2.2.7 1c.2.2.8.5 1.7.6l.3-.2c.5-.8.8-1.5.6-2.2v-.1c0-.2.3-.2.5-.2s.5 0 .6.2v.1c0 .6.5 1 1.3 1.1l1 .2a.7.7 0 0 0 .6-.3c.2-.1.2-.3.3-.5v-.8l.1-.6.1-.1h.2a.4.4 0 0 1 .4 0l.2.2c.2.6 1 1 1.9 1.4h.4c.3.1.7 0 1-.1l.4-.5c.3-.4.4-.9.3-1.3v-.5l.2-.2a.5.5 0 0 1 .4 0l.1.2.2.9c.1.4.5.6 1 .8.6.2 2.5-.2 2.7-.6l.2-.4.2-1.8c.1-.2.2-.2.3-.2h.5l.1.1c0 .7 1 1 1.7 1.5s.7.2 1.3 0c.6 0 1-.4 1-.7.1 0 0-.2 0-.2-.2-.6 0-1.2 0-1.8v-.2l.3-.1h.3l.1.2c.2.5.3 1.1.2 1.7v.4c.2.3.9.3 1.5 0 .3 0 .5-.2.7-.4l.5-1 .2-1.5v-.2l.2-.1h.3l.2.2.4.8c0 .3.7.8 1.4 1h1.1c.5-.2.5-.4.6-.6l.2-1.4v-.4s0-.2.3-.2h.6v.4l.1.4 1.3 1c.4.3 1.1.1 1.6-.3a1 1 0 0 0 .4-.7v-1.2l-.1-.4.3-.2h.3l.1.3c.1.4.4.7.9.9l1.1.5a1.3 1.3 0 0 0 1.2-.2c.3-.2.5-.4.5-.6v-1.5l.3-.2h.6v.2l.1.8c.1.3.3.5.6.7a.8.8 0 0 0 .7 0c.6-.4 1-.7 1-1 .2-.4.2-.8 0-1.2v-.4l.4-.2h.4l.1.8v.5c0 .4.3.6.8.9l.5.1 1.2-.1a2 2 0 0 0 1-.7 1 1 0 0 0 .1-1l-.3-1.1v-.3l.3-.2h.4l.2.3.3 1.3c0 .2 0 .3.2.4 0 .2.4.2.7.1a1 1 0 0 0 .8-.3 1.9 1.9 0 0 0 .3-1.5l-.2-.8c.5-.3.9-.3 1 0 0 .6 0 1.3-.3 2l-.5.6a2 2 0 0 1-1.5.4h-.8l-.7.6c-.7.6-2.4.8-3.2.5l-.7-.3-.5.4-.5.3a2 2 0 0 1-1.8.2h-.3l-.4.2-.6.4c-.4.2-.9.3-1.3.2l-1-.2-.9-.3a.7.7 0 0 0-.2.5c0 .5-.6.8-1.4 1.1-.5.2-1 .2-1.4.1a3 3 0 0 1-.8-.3l-.6-.5v.6c0 .4-.5.8-1.3 1a4 4 0 0 1-2.1-.1c-.5-.2-.7 0-1-.3h-.3l-.3.6c-.2.4-.6.7-1 .8-.5.4-1.2.5-1.8.4h-.7l-.9.3c-1 .4-1.6.4-2.2.2-.7-.3-.6-.3-.8-.5l-.5-.3c-.3.4-.6.7-.5 1 .2.3 0 .3-.4.5l-1.3.6c-.6.2-1.3.3-2 .2l-.6-.3-.6-.2-.3.3c-.5.7-2 1-3 .7l-.9-.5c-.2 0-.2-.2-.5-.2-.2 0-.2 0-.1.1a.3.3 0 0 0 0 .2c.3.3 0 .5-.4.8a3 3 0 0 1-1.5.3c-.6 0-1.1 0-1.7-.3l-.6-.2c-.3.2-.3.3-.4.5l-.4.8-.3.2a2 2 0 0 1-1 .3 4 4 0 0 1-1.4-.5l-.6-.3c-.3.1-.1.2-.2.3v.2c0 .6-.8 1-2 1.3-.5.2-1 .2-1.6 0l-.6-.3-.5-.1-.4.3c-.2.4-.7.7-1.4 1-.6.1-1.2.2-1.7 0h-.2c-1.1-.6-2-1.2-2-2 .7-.3 1-.3 1.2-.2a1.2 1.2 0 0 1 .6 1c0 .2 0 .4.3.5.4.3 1 .4 1.5.3Zm7.6-14.2.1.2v1c0 .4.3.8.8 1a2 2 0 0 0 2-.2c.6-.8 1.2-1.4.9-2v-.2s0-.2.2-.2h.4l.1.4.2.6.5.4c.6.5 1.6.4 2.5-.2 1-.5 1.7-1.2 1.5-1.9v-.4a.5.5 0 0 1 .6-.2h.3l.1.4c0 .4.6.7 1 1l.6.1c.9 0 2.2-.4 2.2-1 0-.7 0-1-.2-1.4-.2-.5 0-.2.5-.3a1 1 0 0 1 .3.8c0 .3.1.6.3.8.3.4.7.5 1.7.3h.5c.5-.1.9-.2 1.1-.5.4-.5.7-1 .8-1.6 0-.3 0-.7.2-1.1v-.1l.4-.2h.3v.8c0 .2.5 1 1.4 1.3a2.7 2.7 0 0 0 2.5-.6.6.6 0 0 0 .3-.5l-.2-1.3v-.6a.5.5 0 0 1 .5-.3c.3 0 .3.1.3.2a1.4 1.4 0 0 0 .3 1.2l1 .9c.4.4 1.3.4 2.3.1 1-.2 1-.4 1.1-.7.2-.6.2-1.1 0-1.7l-.1-.4.1-.2a.5.5 0 0 1 .4 0l.3.1c.3.4.2.9.3 1.3 0 .2 0 .4.2.6 0 .2.2.3.3.4.5.3 1.4.2 2-.2a.8.8 0 0 0 .4-.6l-.1-1v-1l.3-.2.3.1a.7.7 0 0 1 .3.7 1.4 1.4 0 0 0 .6 1.2l.4.2a1.5 1.5 0 0 0 1.2-.1c1-.6 1.7-1.2 1.6-1.9l-.2-.3c-.2-.4 0-.8.2-1.2.2-.4.4 0 .5 0l.1.4.4 1.2c.1.4.5.8 1 1 .6.3.7.2 1.3 0 .6-.3 1.1-.6 1.2-1 .1-.3 0-1-.5-1.5-.4-.5-.1-.6.1-1h.5l.1.3.5 1.3c.1.5.6.8 1.3 1l.4.1c.4 0 .7 0 .7-.2.2-.4.3-.8.3-1.3a.7.7 0 0 0-.4-.8.4.4 0 0 1 0-.8.8.8 0 0 1 .7 0v.1l.5 1.6a1.3 1.3 0 0 1-.3 1c-.5.8-1.3 1-2.3.7a7 7 0 0 1-.8-.3l-.7.6-1.5.6c-1 .2-1.5.1-2-.2l-.4-.5h-.2l-.2.2c-.5.4-1 .8-1.5 1a2 2 0 0 1-1.6.4c-1-.1-1-.1-1.8.3l-.3.2c-.8.4-1.7.5-2.5.3h-.2l-.3-.1-.7.3c-.8.4-1.7.6-2.5.6-.5 0-1-.1-1.5-.4l-.5-.4-.4.6c-.3.3-.7.5-1.2.7-.8.3-1.6.3-2.5 0l-1-.3a1 1 0 0 0-.2.2l-.6.7c-.5.7-2.5 1.2-3.7 1h-.3l-.4-.1-.8.3-1.2.4c-.5.2-1.1.2-1.7 0l-.6-.3-.2-.2-.3.2c-.5.6-1 1-1.7 1.4l-1 .4c-.7.3-1.5.2-2.2 0l-.6-.3-.2.3-.5.5-.8.5c-1.1.3-1.5.4-2.2 0l-.6-.1-.7.4a3 3 0 0 1-2 .3l-1-.2-.4.3-1.1.7a1.5 1.5 0 0 1-1.3.1c-.3 0-.5-.2-.8-.3-.4.7-1.6 1-2.8 1.4-1.2.3-1.7 0-1.7-.4l-.2-2a.2.2 0 0 1 .1-.2l.3-.2h.3v.4l.2 1.4a.8.8 0 0 0 .4.5c.2.1.5.2.8 0 1 0 1.7-.4 1.9-1l.1-.7V108h.6l.1.3v.5c0 .4.4.7 1 1a1.1 1.1 0 0 0 1.1-.2c.7-.4.8-.9.6-1.3l-.2-.6v-.4l.3-.1h.3l.3.7c0 .5.6.8 1.4 1a1.2 1.2 0 0 0 1 0c.5-.2.8-.4.8-.7l.1-.9.1-1 .5-.1Z"/></g><path fill="url(#d)" d="m60 99.7-.6 3.4 3.8 8.3 1.2-8.3-.6-4.2-3.8.8Z"/><path fill="#AD6247" d="M62 100.6a6.2 6.2 0 1 0 0-12.4 6.2 6.2 0 0 0 0 12.4Z"/><path fill="url(#e)" d="M53.7 91.6a7 7 0 1 0 0-14 7 7 0 0 0 0 14Z"/><path fill="#8A76E8" d="M56.5 89.7a1.8 1.8 0 1 0 0-3.5 1.8 1.8 0 0 0 0 3.5Z"/><path fill="#271A38" d="M58 99.8c-2-.2-4.3-3.3-4.2-6.9a7 7 0 0 1 6.5-6.8c3.7-.3 7 1.4 7.9 4.8 0 0 .7 3.2-8.3 2.7 0 1-1.6 2.2-1.6 2.2v2.1l-.2 2Z"/><path fill="#AD6247" d="M58 97a1.4 1.4 0 1 0 0-2.9 1.4 1.4 0 0 0 0 3Z"/><path fill="#271A38" d="M61.9 98.1a2.2 2.2 0 0 1-2-1 .1.1 0 1 1 .3-.1 2 2 0 0 0 1.7.8.1.1 0 0 1 0 .3Z"/><path fill="#AD6247" d="M53.8 103.9a2.8 2.8 0 0 0-4 0l-13 13.3a3 3 0 0 0 0 4h.1a3 3 0 0 0 4 0l13-13.4c1-1 1-2.9 0-4Z"/><path fill="#AD6247" d="m50 129.2-12.8-7.5a2.5 2.5 0 0 1-1.2-3.4 2.6 2.6 0 0 1 3.3-1.2l12.4 7.7c.1-.4.4-.7.7-1 0 .3.4 1.7 1.3 1.8.9 0 2.1.3 2.8.4.6.1.7 1.1 0 1.2.4.1 1 .3.9.7-.1.5-1.3.6-1.3.6s.8.3.7.8c-.1.5-.6.7-1.4.5a.5.5 0 0 1 .3.7c-.2.5-1 .4-2 .2a13 13 0 0 1-3.7-1.5Z"/><path fill="#EDB3B2" d="M156.7 55.4a.8.8 0 0 0-1.2-.1l-2 1.8 2.6-3a.8.8 0 0 0 .2-.6.8.8 0 0 0-1.2-.7l-.2.2-2.5 2.8L155 52a.8.8 0 0 0 0-.9.8.8 0 0 0-.5-.3.8.8 0 0 0-.9.3l-2.6 3.8 1.8-3.3a.8.8 0 0 0-.3-1 .8.8 0 0 0-1 0l-.1.2-1.8 3.3a5 5 0 0 1-.6.8.8.8 0 0 1-.8.2.7.7 0 0 1-.5-.8c0-.9.1-2.3-1-2-1 .2-.6 2.2-.7 3.2l.2 2.4c.1 1-1.1 2.7-1.1 2.7l5.1 3.6 3.8-5.4 2.6-2.3a.8.8 0 0 0 .3-.5.8.8 0 0 0-.2-.6Zm-73.6 6.4a.8.8 0 0 1 1.1-.3l2.5 1.3-3.3-2.4a.8.8 0 0 1 .4-1.4l.6.1 3 2.2-3.4-3.1a.8.8 0 0 1 1.2-1.2l3.4 3-2.6-2.7a.8.8 0 0 1 .1-1.2.8.8 0 0 1 1.2 0l2.4 2.9.8.6c.4.3 1.3.1 1.1-.9-.2-1-.6-2.1.5-2.2 1 0 1.2 2 1.4 3 .2.8.4 1.6.4 2.5.2 1 1.7 2.3 1.7 2.3L91.4 69l-4.9-4.3-3-1.7a.8.8 0 0 1-.4-1Z"/><path fill="#9DA9F3" d="M89.9 67.5 105.3 94a9 9 0 0 1 1.4 4.8v15h28.1V99.5c0-1.9.5-3.8 1.4-5.4l14.3-30-6-2.6L128 85.4a3.8 3.8 0 0 1-3 1.6h-9a5 5 0 0 1-3.9-1.9L94.8 63.6l-5 3.9Z"/><path fill="#8A76E8" d="m94.6 63.4-5 4c-.2 0-.2.3 0 .5l2 2.7c.2.2.4.2.6 0l5-3.9c.2-.1.2-.4 0-.6l-2-2.6a.4.4 0 0 0-.6 0Zm56.6 0-5.5-3.6a.3.3 0 0 0-.5.1l-2 3c0 .2 0 .4.2.5l5.5 3.5c.1.1.3 0 .4 0l2-3-.1-.5Z"/><path fill="url(#f)" d="m123.7 87.8-3.3 2.6-3.3-2.6v-5h6.6v5Z"/><path fill="#8A76E8" d="M120.8 89.4h-.8v24.3h.8V89.4Z"/><path fill="#8A76E8" d="m120.4 89.5-1.6 2.4-3.3-5 1.6-1.7 3.3 4.3Zm0 0 1.7 2.4 3.3-5-1.7-1.7-3.3 4.3Z"/><path fill="#EDB3B2" d="M120.5 85.4c3.9 0 7-3.3 7-7.4 0-4.2-3.1-7.5-7-7.5s-7 3.3-7 7.5c0 4 3.1 7.4 7 7.4Z"/><path fill="#EDB3B2" d="M113.9 80.1c.9 0 1.6-.8 1.6-1.7 0-1-.7-1.7-1.6-1.7-1 0-1.6.7-1.6 1.7s.7 1.7 1.6 1.7Z"/><path fill="#9DA9F3" d="m113.6 79.4.5-1.8a2 2 0 0 0 1.4-1.7c0-.8-.2-1.6-.7-2.2 0 0-2.3 1-1.2 5.7Z"/><path fill="#EDB3B2" d="M127.1 80.1c1 0 1.6-.8 1.6-1.7 0-1-.7-1.7-1.6-1.7-.9 0-1.6.7-1.6 1.7s.7 1.7 1.6 1.7Z"/><path fill="#9DA9F3" d="m127.4 79.4-.5-1.8a2 2 0 0 1-1.3-1.7c-.1-.8.1-1.6.6-2.2 0 0 2.3 1 1.2 5.7Z"/><path fill="#271A38" d="M118.7 82.5c-.3 0-.6 0-.8-.2-.4-.3-.6-.7-.8-1.1a.2.2 0 0 1 .2-.2h.1c.1.5.4.8.7 1a1.4 1.4 0 0 0 1 .2h.2v.2l-.6.1Z"/><path fill="#9DA9F3" d="m120.3 70.5-1-2 1.3 1.8.3-1.5v1.4l.8-.5-.5 1s-.6.4-.9-.2Z"/><path fill="url(#g)" d="M204.1 63c-1 .8-1.7 1.2-2.6.2l-.8-1.1a1 1 0 0 0-1.5-.2 1 1 0 0 0-.2 1.5l1.2 1.4c1.3 1.7 0 3.2 0 3.2l3.8 4.8 5.1-4c1.3-1 1.2-1.9 1.2-1.9s-6-4.2-6.2-4Z"/><path fill="#CC8269" d="m206 61.3-2 1.5c-.3.3-.4.8 0 1.2.2.4.8.5 1.1.2l2-1.5c.3-.3.4-.8 0-1.2a.9.9 0 0 0-1.2-.2Z"/><path fill="#CC8269" d="m207.6 62.2-2.5 2a1 1 0 0 0-.1 1.2c.3.4.8.4 1.2.1l2.5-1.9c.3-.3.4-.8.1-1.2a.9.9 0 0 0-1.2-.2Z"/><path fill="#CC8269" d="m208.3 63.9-2 1.6c-.5.3-.5.8-.2 1.2.3.4.8.5 1.2.2l2-1.7c.5-.3.5-.8.2-1.2a.9.9 0 0 0-1.2-.1Z"/><path fill="#CC8269" d="m209.1 65.4-1.8 1.5c-.4.3-.5.8-.2 1.2.3.4.9.5 1.2.2l2-1.5c.3-.3.3-.8 0-1.2a.9.9 0 0 0-1.2-.2Z"/><path fill="#271A38" d="M181.5 78.6c0-.2 0-.4-.2-.6l.2-.8-.3-.9.1-.6a1.6 1.6 0 0 0-1.6-1.6h-.4a2 2 0 0 0-2.2-.3h-1.5l-.6-.2a1 1 0 0 0-.5 0 .8.8 0 0 0-.8-.5.9.9 0 0 0-.8.7h-.1a.8.8 0 0 0-.7.4h-.4a1.7 1.7 0 0 0-1.6 1.3.7.7 0 0 0-.7.5 1.4 1.4 0 0 0-1.4 1.4l.1.4a1.2 1.2 0 0 0-.6 1l.2.6a1 1 0 0 0-.2.7 1.1 1.1 0 0 0 .4 1l-.2.4c0 .2 0 .4.2.5l-.2.5a.8.8 0 0 0 .2.7.8.8 0 0 0 1.5-.7c0-.2 0-.4-.2-.5l.1-.5v-.4a1.1 1.1 0 0 0 .3-1.6l.2-.7v-.1a1.3 1.3 0 0 0 1-1.3v-.2c.2.2.6.3 1 .3a1.7 1.7 0 0 0 1.6-1.7v-.5l.2-.5h.2a1.1 1.1 0 0 0 .4 1v.2a2.2 2.2 0 0 0 2.2 2.2c.5 0 1-.2 1.4-.5h.2a1.7 1.7 0 0 0 1.6 1.3l.1.3a.8.8 0 0 0 .3 1 .7.7 0 0 0-.3.7l.1.3a1 1 0 0 0-.7.8 1 1 0 0 0 1.9.3 1 1 0 0 0-.2-.8.7.7 0 0 0 .3-.6.7.7 0 0 0-.3-.6.8.8 0 0 0 .4-1 1 1 0 0 0 .3-.8Z"/><path fill="#CC8269" d="M169 85.3a1.6 1.6 0 1 0 0-3.2 1.6 1.6 0 0 0 0 3.2Zm10.7 0a1.6 1.6 0 1 0 0-3.2 1.6 1.6 0 0 0 0 3.2Z"/><path fill="#F9AB2D" d="M200 67.4s-12.5 17.8-14.9 20.2a16 16 0 0 1-4.7 3.5h-15c-2 0-6.2 1.2-8.2 5.6l-5.3 12.5 7.3 2.4v12.8a6.8 6.8 0 0 0 6.8 6.8h15c3.7 0 6.7-1.2 6.7-5v-16.9c0-1.9.4-4 .6-6a30 30 0 0 1 3.7-9.6L205.8 72l-5.8-4.6Z"/><mask id="h" width="55" height="65" x="151" y="67" maskUnits="userSpaceOnUse" style="mask-type:alpha"><path fill="#F9AB2D" d="M200 67.4s-12.5 17.8-14.9 20.2a16 16 0 0 1-4.7 3.5h-15c-2 0-6.2 1.2-8.2 5.6l-5.3 12.5 7.3 2.4v12.8a6.8 6.8 0 0 0 6.8 6.8h15c3.7 0 6.7-1.2 6.7-5v-16.9c0-1.9.4-4 .6-6a30 30 0 0 1 3.7-9.6L205.8 72l-5.8-4.6Z"/></mask><g fill="#FF7B6D" mask="url(#h)"><path d="m217.6 64.8-74.6 6v.3l74.6-6v-.3Zm-.6 3.5L142.6 74v.4l74.4-5.8v-.3Zm1 2.5-74.5 6v.3l74.6-6v-.3Zm.3 3-74.6 6v.3l74.7-6v-.3Zm-.7 3.5-74.3 5.8v.3l74.4-5.7v-.4Zm1.2 2.6-74.6 6v.3l74.7-6V80Zm-.7 3.5L143.8 89v.3l74.4-5.7v-.3Zm1.2 2.6-74.6 5.9v.4l74.6-6v-.4Zm.2 3L145 95v.3l74.7-6V89Zm.3 3-74.6 6v.3l74.6-6V92Zm.2 3-74.6 6v.3l74.6-6V95Zm.3 3-74.6 6v.3l74.6-6V98Zm-.8 3.4-74.3 5.8v.3l74.4-5.7v-.4Zm.3 3.1-74.4 5.7v.4l74.4-5.8v-.3Zm.2 3-74.4 5.7v.4l74.4-5.7v-.4Zm1.2 2.6-74.6 6v.4l74.7-6v-.4Zm-.8 3.4-74.3 5.8v.3l74.4-5.7v-.4Zm1.3 2.7-74.6 6v.3l74.7-6v-.3Zm-.7 3.4-74.4 5.7v.3L221 120v-.3Zm1.2 2.6-74.6 6v.3l74.6-6v-.3Z"/></g><path fill="url(#i)" d="M178 91s-.8 1.9-3.6 1.9c-3 0-3.8-1.8-3.8-1.8v-4h7.5v4Z"/><path fill="#CC8269" d="M174.4 74.6a6 6 0 0 0-6 6v3.5a6 6 0 0 0 12 0v-3.5a6 6 0 0 0-6-6Z"/><path fill="#271A38" d="m168.4 84.1.5-1.5.7-.5v-3s.4.5 1.5.4c1 .3 2-.6 2-.6s.9.7 1.7.4c.8.4 1.5-.6 1.5-.6a1 1 0 0 0 1 .3.5.5 0 0 0 .8.4 1.5 1.5 0 0 0 1.4.7v2.3l.5.5.3 1.7.5-4.2-1.2-4.2-4.7-2h-2l-2.8 1.6-1.6 2.2-.5 2 .4 4.1Z"/><path fill="#F2E93F" d="M204.7 103.4H79.2a2.7 2.7 0 0 0-2.7 2.8v90c0 1.4 1.2 2.7 2.7 2.7h125.5c1.5 0 2.7-1.3 2.7-2.8v-90c0-1.4-1.2-2.7-2.7-2.7Z"/><path fill="#8A76E8" d="M204 107.2H79.9v88h124.3v-88Z"/><path fill="url(#j)" d="M202.2 109.3H81.7V193h120.5v-83.7Z"/><path fill="#F2E93F" d="M115.7 168.2s1.1 1.6-.8 2.3c-2 .7-5.2 1-11.6 6a33 33 0 0 1 2.2-6.7c-2.9 0-5.7 1.6-5.7 1.6s3-6.2 9.8-7.6c8.7-1.9 5 1.6 5 1.6l1 2.8Z"/><path fill="#8A76E8" d="M108 167s.8 2.5 3 2 4.3-1.6 5-.3c-.8-1.3-1.9-4.5-1.9-4.5l-6 2.9Z"/><path fill="#F2E93F" d="M168.2 168.2s-1.1 1.6.8 2.3c2 .7 5.1 1 11.6 6a33 33 0 0 0-2.2-6.7c2.9 0 5.7 1.6 5.7 1.6s-3-6.2-9.8-7.6c-8.7-1.9-5 1.6-5 1.6l-1.1 2.8Z"/><path fill="#8A76E8" d="M175.9 167s-.8 2.5-3 2-4.3-1.6-5-.3c.8-1.3 1.9-4.5 1.9-4.5l6 2.9Z"/><path fill="#32327F" d="m111.4 168.9.3-.1h-.3Zm61.1 0-.3-.1h.3Z"/><path fill="#F2E93F" d="M177.3 159.3a105 105 0 0 0-35.4-5 105 105 0 0 0-35.9 5.4 1.7 1.7 0 0 0-.5 1.2c0 .3 0 .5.2.7l2.2 5.2 1 2.7 2.3-.6c-2.3.6-1.6-1-1-1.2 8.8-3.5 23-4.3 31.7-4.3 8.9 0 23 .8 31.9 4.3.5.3 1.2 1.8-1.1 1.2l2.3.6 1-2.7 2.2-5.2a1.8 1.8 0 0 0-.3-1.9l-.6-.4Z"/><path fill="#8A76E8" d="M86.7 109a5.3 5.3 0 0 1-5.3 5.3V109h5.3Zm115.8 5.3a5.2 5.2 0 0 1-5.3-5.3h5.3v5.3Zm-5.3 79a5.3 5.3 0 0 1 5.3-5.2v5.2h-5.3ZM81.4 188a5.2 5.2 0 0 1 5.3 5.3h-5.3v-5.2Zm60.6-64.4 1.4 1.5 1.6-1.3 1.3 1.6 1.8-1 1 1.7 1.9-.7.8 1.8 2-.5.6 2 2-.4.3 2h2l.1 2 2 .3-.1 2 2 .5-.4 2 1.9.7-.7 1.9 1.8 1-1 1.8 1.8 1.1-1.2 1.8 1.6 1.3-1.4 1.6 1.4 1.5-1.6 1.4 1.2 1.7-1.7 1.1 1 1.9-1.9 1 .7 1.9-2 .7.5 2-2 .4.2 2-2 .3-.2 2h-2l-.3 2-2-.3-.6 2-2-.6-.8 1.9-2-.8-1 1.7-1.7-1-1.3 1.6-1.6-1.2-1.5 1.4-1.4-1.4-1.6 1.2-1.3-1.6-1.8 1-1-1.7-1.9.8-.8-1.9-2 .6-.6-2-2 .3-.3-2h-2l-.1-2-2-.2.1-2-2-.5.4-2-1.9-.7.7-2-1.8-.9 1-1.9-1.8-1.1 1.2-1.7-1.6-1.4 1.4-1.5-1.4-1.6 1.6-1.3-1.2-1.8 1.7-1.1-1-1.8 1.9-1-.7-2 2-.6-.5-2 2-.5-.2-2 2-.2.1-2.1h2l.4-2 2 .3.6-2 2 .6.8-1.8 2 .7 1-1.7 1.7 1 1.3-1.6 1.6 1.3 1.4-1.5Z"/><path fill="#fff" d="M151.7 148a10.6 10.6 0 0 0-3.5-8 11.7 11.7 0 0 0-14.3-1.3c-.4.3-.4.3-.1.7l3.2 3.6.3.2h.4a5.6 5.6 0 0 1 7.4 2 5.3 5.3 0 0 1-1.8 7.3 5.6 5.6 0 0 1-5.4.2c-.4 0-.6 0-.7.2l-3.3 3.8c-.3.3-.3.4.2.6 2.2 1.5 5 2.1 7.6 1.8 2.8-.4 5.3-1.7 7.1-3.8 1.9-2 2.9-4.6 2.9-7.4Z"/><path fill="#8A76E8" d="M151.5 180.8h-19c-.3 0-.5.1-.5.4 0 .2.2.4.4.4h19c.3 0 .5-.2.5-.4 0-.3-.2-.4-.4-.4Zm-43.2-51.9H90.5c-.3 0-.4.2-.4.4s.1.4.4.4h17.8c.2 0 .4-.2.4-.4s-.2-.4-.4-.4Zm-4.1 3.8H90.5c-.3 0-.4.2-.4.4 0 .3.1.4.4.4h13.7c.2 0 .4-.1.4-.4 0-.2-.2-.4-.4-.4Zm5.3 3.8h-19c-.3 0-.4.2-.4.5 0 .2.1.4.4.4h19c.3 0 .5-.2.5-.4 0-.3-.2-.5-.5-.5Zm-10 3.9h-9c-.3 0-.4.1-.4.4 0 .2.1.4.4.4h9c.2 0 .4-.2.4-.4 0-.3-.2-.4-.4-.4Zm3.4 3.8H90.5c-.3 0-.4.2-.4.4s.1.4.4.4h12.4c.2 0 .4-.2.4-.4s-.2-.4-.4-.4Zm72.7-14.5h17.8c.2 0 .4-.2.4-.4s-.2-.4-.4-.4h-17.8c-.2 0-.4.2-.4.4s.2.4.4.4Zm4.1 3.8h13.7c.3 0 .4-.2.4-.4s-.1-.4-.4-.4h-13.7c-.2 0-.4.2-.4.4s.2.4.4.4Zm-5.3 3.9h19c.3 0 .4-.2.4-.4s-.1-.4-.4-.4h-19c-.3 0-.5.2-.5.4s.2.4.5.4Zm9.9 3.8h9c.3 0 .5-.2.5-.4s-.2-.4-.4-.4h-9c-.3 0-.5.2-.5.4s.2.4.4.4ZM181 145h12.4c.3 0 .4-.2.4-.4s-.1-.4-.4-.4H181c-.2 0-.4.2-.4.4s.2.4.4.4Z"/><path fill="#AD6247" d="M85.8 102c-.4 0-.7.2-.7.6v1.6c0 .4.3.7.7.7.4 0 .7-.3.7-.7v-1.6c0-.4-.3-.7-.7-.7Zm1.5-.7c-.4 0-.8.3-.8.7v2.5c0 .4.4.7.8.7s.7-.3.7-.7V102c0-.4-.3-.7-.7-.7Zm1.4.7c-.4 0-.7.4-.7.8v1.6c0 .4.3.7.7.7.4 0 .8-.3.8-.7v-1.6c0-.4-.4-.8-.8-.8Zm1.5.5c-.4 0-.7.3-.7.7v1.3c0 .4.3.7.7.7.4 0 .7-.3.7-.7v-1.3c0-.4-.3-.7-.7-.7Zm-5.2.8s-1.2-1.3-2 .4h2v-.4Z"/><path fill="#CC8269" d="M153.2 105.1c.5 0 .9-.4.9-.9v-1.9c0-.5-.4-.9-.9-.9s-1 .4-1 1v1.8c0 .5.5 1 1 1Z"/><path fill="#CC8269" d="M151.4 105.5c.5 0 .9-.4.9-1v-3c0-.4-.4-.8-.9-.8s-1 .4-1 .9v3c0 .5.5.9 1 .9Z"/><path fill="#CC8269" d="M149.6 105.3c.5 0 1-.4 1-.9v-2c0-.5-.5-.9-1-.9s-.9.4-.9 1v2c0 .4.4.8.9.8Z"/><path fill="#CC8269" d="M147.8 105.5c.5 0 1-.4 1-1V103c0-.4-.5-.8-1-.8s-.9.4-.9.8v1.6c0 .5.4.9.9.9Zm6.3-2.5s1.6-1.5 2.5.6H154v-.5Z"/><path fill="#271A38" d="M231 148.1h-11.1c-.6 0-1.2.6-1.2 1.2s.6 1.1 1.2 1.1h11c.7 0 1.2-.5 1.2-1.1 0-.6-.5-1.2-1.2-1.2Z"/><path fill="url(#k)" d="M194 138.6c.6.8 1.3 1.5 2 .5l.5-1a.9.9 0 0 1 1.3-.3.9.9 0 0 1 .2 1.3l-.8 1.3c-1 1.5-.2 4.5-.2 4.5l-5.5 1.2s-1.6-2.5-2.5-3.5c-.8-1-.6-1.6-.6-1.6s5.4-2.6 5.6-2.4Z"/><path fill="#EDB3B2" d="m191.7 138.2 1.4 1.6a.8.8 0 1 0 1.1-1l-1.3-1.6a.8.8 0 1 0-1.2 1Z"/><path fill="#EDB3B2" d="m190.1 138.8 1.8 2a.7.7 0 1 0 1.1-1l-1.7-2a.7.7 0 0 0-1.2 1Z"/><path fill="#EDB3B2" d="m189.2 140 1.6 1.7a.7.7 0 0 0 1-1l-1.4-1.7a.8.8 0 0 0-1.2 1Z"/><path fill="#EDB3B2" d="m188.3 141.2 1.3 1.5a.8.8 0 0 0 1.2-1l-1.4-1.5a.7.7 0 1 0-1.1 1Z"/><path fill="#FF7B6D" d="m197.4 144.1 3.3 14a3.4 3.4 0 0 1-6.7 1.7l-3.3-14.1 6.7-1.6Z"/><path fill="url(#l)" d="M213.7 149a4 4 0 1 0-5.7-5.6l-12.8 12.8a4 4 0 1 0 5.7 5.6l12.8-12.8Z"/><path fill="#6E61CE" d="M212 175.7c6.3 0 9.4-2.8 9.4-6.7 0-4-2.5-7-10.3-6.3-7.7.7-25.8 2-25.8 2s-4.3 0-6.6 5.1l-7.8 19 8.1 4.8 8.7-16.3a3.3 3.3 0 0 1 2.9-1.6H212Z"/><path fill="#DD9E9E" d="m174 187.4-3.5 7 5.9 3.2 4-8-6.4-2.2Z"/><path fill="#6E61CE" d="M171.4 192.5s-2.3 0-4-.4c-1.5-.4-4-1-4.9.3 0 0-1 .5 1.1 1.7l11.8 6.6s1.8-2.2 1.8-4.8c-.4.2-2.8.4-4-.8a9.3 9.3 0 0 1-1.8-2.6Z"/><path fill="#F2E93F" d="M207.6 146.2s2.6-1.4 1.7-5.5c-.8-4-2-8.7 1-12.6 3-4 6.3-2.4 6.3-2.4s6.4-1.3 8.2 4.7c1.9 6-1.3 8.7.6 12.4 2.6 4.7 1.4 8.2-.7 8.1-2 0-17-4.7-17-4.7Z"/><path fill="#EDB3B2" d="m176 188.4-3.6 7 5.9 3.2 4-7.9-6.4-2.3Z"/><path fill="#8A76E8" d="M214 176.8c6.2 0 9.3-2.9 9.3-6.8 0-4-2.5-6.9-10.3-6.2l-25.8 1.9s-4.3 0-6.6 5.1l-7.8 19 8.1 4.8 10.2-16.3a3.3 3.3 0 0 1 2.9-1.6h20Zm-40.6 16.7s-2.4 0-4-.3c-1.7-.5-4.2-1.1-5 .3 0 0-1 .5 1.1 1.7l11.8 6.5s1.8-2.1 1.8-4.7c-.4.2-2.8.3-4-1a5.7 5.7 0 0 1-1.7-2.5Z"/><path fill="url(#m)" d="M214.2 140.8c-2.7 0-5.8 1.1-8.8 5.7-3 4.5-5.5 7.6-2.5 10.9-.7 2.6-1.4 7.2-1.4 7.2s6.2 0 9 3.7a16 16 0 0 0 10.9 5.8c2.5-.1 4.4-16.2 3.9-22-.6-6.3-2-11.3-11.1-11.3Z"/><path fill="url(#n)" d="M212.8 146.6c1.4.5 6-4.7 5.3-5.5v-2.3h-5.2v2.2c-.8.6-1.2 5.2 0 5.6Z"/><path fill="#EDB3B2" d="M215.8 140.5a5.7 5.7 0 1 0 0-11.4 5.7 5.7 0 0 0 0 11.4Z"/><path fill="#F2E93F" d="M209.5 134.3s3.4.3 5-3.5c-.2 2.3 3.7 5.7 7.7 5.4 1.4-1 .2-5.9-1.2-7-1.3-1.3-7-2.2-8-1.2-1 1-3.9 2.5-3.5 6.3Z"/><path fill="#271A38" d="M216.3 137.9h-.5v-.2a.1.1 0 0 1 .1-.1s1.2.3 1.5-.8h.2s.1 0 0 .1a1.3 1.3 0 0 1-1.3 1Zm-.2 22.6a1 1 0 0 0-1 1v14.3h-23l-.4.1a1 1 0 0 0-.3.3l-4.7 9c-1.6.1-2.8 1-3.6 2.9l-7 12.6-11.2-6.3a1 1 0 0 0-.7-.2 1 1 0 0 0-.7.9 1 1 0 0 0 .2.7l.4.2 11.9 6.7a1 1 0 0 0 1.2-.3 323 323 0 0 0 7.5-13.6c.5-1 1-1.5 1.6-1.7V202a1 1 0 0 0 1.8 0v-15h28a.9.9 0 0 0 .8-.5v-25a.9.9 0 0 0-.8-.9Zm-27.2 24.7 3.7-7.6h22.6v7.6h-26.3Z"/><path fill="#271A38" d="M226 158.6h-17.5c-.9 0-1.6.8-1.6 1.7v.4c0 1 .7 1.7 1.6 1.7H226c.9 0 1.6-.8 1.6-1.7v-.4c0-1-.7-1.7-1.6-1.7Z"/><path fill="#271A38" d="M214.8 177.6h2c2 0 7-1.7 7-7.2v-10H222v10.3c0 1.7-1.8 5.1-5.7 5.1h-1.5v1.8ZM187.2 196a5.9 5.9 0 1 0 0 11.8 5.9 5.9 0 0 0 0-11.7Zm0 9.9a4 4 0 1 1 0-7.9 4 4 0 0 1 0 7.9Z"/><path fill="#271A38" d="M187.2 203.4a1.5 1.5 0 1 0 0-3 1.5 1.5 0 0 0 0 3Zm28.9-39a21.7 21.7 0 1 0 0 43.5 21.7 21.7 0 0 0 0-43.5Zm0 40.8a19.1 19.1 0 1 1 0-38.3 19.1 19.1 0 0 1 0 38.3Z"/><path fill="#271A38" d="M216.1 188.7a2.6 2.6 0 1 0 0-5.3 2.6 2.6 0 0 0 0 5.3Z"/><path fill="#FF7B6D" d="M218.3 143.3h-.1a4 4 0 0 0-1.9 5.2l8.2 17.1a4 4 0 1 0 7.2-3.4l-8.2-17a4 4 0 0 0-5.2-2Z"/><path fill="#EDB3B2" d="M210.6 164.4s-2.4-1.3-3.3-.4c-.9 1 1 1.8 1 1.8l2.3-1.4Z"/><path fill="#EDB3B2" d="M207.7 169.1a1.2 1.2 0 0 0 1.3-.2c.5-.5 2.7-1.5 4.8-1.7l3.9-.5-.6-5.2-4.8.6c-2 .2-3.7 1.4-5 3.7-1 2-.2 3 .4 3.3Z"/><path fill="#FF7B6D" d="M213.8 161h14.5a3.4 3.4 0 0 1 2.4 5.8 3.4 3.4 0 0 1-2.4 1h-14.5v-6.9Z"/></g></svg>